 <!DOCTYPE svg PUBLIC "-//W3C//DTD SVG 1.1//EN" "http://www.w3.org/Graphics/SVG/1.1/DTD/svg11.dtd">
<svg id="bc112b3f-d876-45ce-b33a-fc409e63642d" data-name="Layer 1" xmlns="http://www.w3.org/2000/svg" width="865.76" height="682.89" viewBox="0 0 865.76 682.89">
<defs>
<style xmlns="http://www.w3.org/1999/xhtml">*, ::after, ::before { box-sizing: border-box; }
img, svg { vertical-align: middle; }
</style>
<style xmlns="http://www.w3.org/1999/xhtml">*, body, html { -webkit-font-smoothing: antialiased; }
img, svg { max-width: 100%; }
</style>
</defs>
<g id="fcfcb774-ee11-46dc-9703-918625864494" data-name="freepik--background-simple--inject-6">
<path d="M714.55,138.64c-53.33-48-136.66-73.63-215.5-79.92q-34.67-2.7-69.53-2.33c-228.91,1.93-295.95,80.2-281.28,117.9s55.94,60.88-3.61,113.06S18,417.76,52.06,496.05,227.39,635.2,432,625.54s337.28-10.63,379.9-83.07-50.53-122.2-63.65-184.31c-8.1-38.52,12.73-77.34,14.24-115.74C764.08,200.89,745.21,166.27,714.55,138.64Z" fill="#0071f2" data-primary="true"/>
<path d="M714.55,138.64c-53.33-48-136.66-73.63-215.5-79.92q-34.67-2.7-69.53-2.33c-228.91,1.93-295.95,80.2-281.28,117.9s55.94,60.88-3.61,113.06S18,417.76,52.06,496.05,227.39,635.2,432,625.54s337.28-10.63,379.9-83.07-50.53-122.2-63.65-184.31c-8.1-38.52,12.73-77.34,14.24-115.74C764.08,200.89,745.21,166.27,714.55,138.64Z" fill="#fff" opacity="0.7" style="isolation:isolate"/>
</g>
<path d="M729.38,560.47l-6.19,52.84a4.23,4.23,0,0,0,4.19,4.71h91.34a4.22,4.22,0,0,0,4.19-4.7l-6.16-53.49Z" fill="#0071f2" data-primary="true"/>
<rect x="729.38" y="550.22" width="87.56" height="16.51" rx="1.55" fill="#2f2e41" data-secondary="true"/>
<path d="M750.66,564.64s-3.2,0,0-10.76c0,0,7-22.73,20-24,0,0,17-4.52,25,26,0,0,4,9.76-2.5,9.76,0,0-6.81,1.89-4.25-9.76,0,0-3-23.26-17-22,0,0-10,.75-13.51,15.26a54.61,54.61,0,0,0-1.25,12S758.71,567.14,750.66,564.64Z" fill="#0071f2" data-primary="true"/>
<path d="M591.79,616.81h-17c-7.64.86-5.89-5.23-5.89-5.23-.65-19.59,4-28.75,4-28.75v1.33s-5,20.2,0,21.58c0,0,22.13,3.6,20.76-5.53C597.65,618,591.79,616.81,591.79,616.81Z" fill="#0071f2" data-primary="true"/>
<path d="M666.45,531s-2,4.92,1.71,7.14l16,16.41a11,11,0,0,0,3.62,2.51,17.72,17.72,0,0,0,18.78-2.69s15.24-9.1-8.36-21.4Z" fill="#0071f2" data-primary="true"/>
<polygon points="492.39 485.57 483.53 616.8 490.73 616.8 504.83 485.57 492.39 485.57" fill="#bcbec0"/>
<polygon points="619.63 616.8 605.53 485.57 617.42 485.57 626.27 616.8 619.63 616.8" fill="#bcbec0"/>
<rect x="477.95" y="458.62" width="153.65" height="29.72" rx="3.59" fill="#d1d3d4"/>
<path d="M546.87,458.8s14.71,1.1,18.26,3.27l.5-17.42S554.39,454.09,546.87,458.8Z" fill="#2f2e41" data-secondary="true"/>
<path d="M546.87,458.8s14.71,1.1,18.26,3.27l.5-17.42S554.39,454.09,546.87,458.8Z" opacity="0.5"/>
<polygon points="527.84 321.89 558.76 321.89 576.77 356.67 575.3 406.18 548.4 406.26 531.41 361.14 527.84 321.89" fill="#e6e7e8"/>
<path d="M575.93,319.76s10.93,3.93,21.12,45.18l3.23,41.24H583.63l-5-27.33-1.49-37.49-5-15.43Z" fill="#0071f2" data-primary="true"/>
<path d="M575.93,319.76s10.93,3.93,21.12,45.18l3.23,41.24H583.63l-5-27.33-1.49-37.49-5-15.43Z" opacity="0.2"/>
<rect x="58.06" y="82.02" width="282.02" height="492.2" rx="14.39" fill="#2f2e41" data-secondary="true"/>
<path d="M532.5,299l-1,12.52-2,4.25L539,337.89a20.78,20.78,0,0,0,6,8.12c2.94,2.36,7.11,4.4,12,3.15,0,0,9-1.17,3.17-17.35l-6.34-14-1.34-6.22-.19-4.12S541.94,311.19,532.5,299Z" fill="#f9b499"/>
<path d="M529.49,315.8s-6.79,6.18-22.41,4.06a7.76,7.76,0,0,0-7.46,3.23c-3.32,4.78-9.05,15.45-17.92,39.24,0,0-15.76,37.53-5.75,43.79h9s-1.76-15,17.51-17.52c0,0,2.5-2.25,2.25-9.25a10.51,10.51,0,0,1,2.87-8,.3.3,0,0,1,.51.21,57.94,57.94,0,0,0,1.12,10.06s4.26,20,.5,30.77c0,0-6,15.76-6.5,20.76,0,0,5-11.75,39-17.76l6.75-1.5s5-23.27,3.75-40.78a307.58,307.58,0,0,0-12.18-32.17Z" fill="#0071f2" data-primary="true"/>
<path d="M537,332.76l-7.48-17a20,20,0,0,1-4,2.32L523,329.56l9.51,2.75L523,345.07s23.77,13.26,29.77,28C552.75,373.09,546.25,351.17,537,332.76Z" fill="#fff"/>
<path d="M554.72,319.76h21.21s2.49,22.11,4.79,34a24.48,24.48,0,0,0,2.1,6.34c2,3.94,5.38,12.86,2.06,22.47l-1.25,23.6H572.7l-.21-38.58a36.7,36.7,0,0,0-3-14.23C565.26,343.35,557.48,325.26,554.72,319.76Z" fill="#0071f2" data-primary="true"/>
<path d="M560.18,331.81l-5.46-12.05h3.57l9.69,6.42-2.48,5.46,9.93,8.95s-3.66,6.25-3.27,22.38C572.16,363,571.16,356.64,560.18,331.81Z" fill="#fff"/>
<rect x="544.86" y="403.76" width="112.62" height="2.42" fill="#0071f2" data-primary="true"/>
<rect x="544.86" y="403.76" width="112.62" height="2.42" fill="#fff" opacity="0.2"/>
<path d="M581.64,403.76l20.51-54.54a3,3,0,0,1,2.76-1.91h68.5a4,4,0,0,1,3.71,5.4l-19.64,51.05Z" fill="#2f2e41" data-secondary="true"/>
<rect x="627.12" y="356.66" width="22.97" height="6.3" rx="1.35" fill="#fff"/>
<path d="M503.22,433.13s-8.34,22.61,9.57,28.1c0,0,15.68,7.1,35.52-3.15a43.59,43.59,0,0,0,7.75-5.24l3.5-2.88A110,110,0,0,0,571,439.2c3.11-3.41,8.83-7.83,16.68-6.07,0,0,16.83,2,12.58,30.49l48.12,52.49,22.35-19-66.23-82L549,413.87S509.14,420.21,503.22,433.13Z" fill="#2f2e41" data-secondary="true"/>
<path d="M565.63,444.65s-3,79.13,2,104.48c2,.34,29,0,29,0l3.58-85.51s5.85-26.86-12.58-30.49c0,0-9.34-3.29-16.68,6.07Z" fill="#2f2e41" data-secondary="true"/>
<path d="M565.63,444.65s-3,79.13,2,104.48c2,.34,29,0,29,0l3.58-85.51s5.85-26.86-12.58-30.49c0,0-9.34-3.29-16.68,6.07Z" opacity="0.2"/>
<path d="M572.88,605.74c-5-1.38,0-21.58,0-21.58V549.28l18-.09.28,14.5c1.66,6.09-.28,9.69-.28,9.69-1.66,6.07,2.78,26.83,2.78,26.83C595,609.34,572.88,605.74,572.88,605.74Z" fill="#f9b499"/>
<path d="M653.21,512s6.34,6.91,7.57,11.33c0,0,1.08,6.06,5.67,7.62a7.37,7.37,0,0,1,2.39,1.5L681.93,544a16.65,16.65,0,0,0,16.23-1.23s6.39-5.41,0-9.84l-12.55-11.06-18.36-21.8Z" fill="#f9b499"/>
<rect x="402.49" y="406.18" width="362.04" height="8.96" rx="1.92" fill="#d1d3d4"/>
<polygon points="428.86 415.14 414.85 616.8 421.86 616.89 443.7 415.14 428.86 415.14" fill="#bcbec0"/>
<polygon points="722.64 415.14 745.08 616.89 750.69 616.89 736.67 415.14 722.64 415.14" fill="#bcbec0"/>
<path d="M485,406.12l8,.06s5.22-11.56,15.12-16.11l-5.62-1.47S484.05,389.74,485,406.12Z" fill="#e6e7e8"/>
<path d="M493,406.18s27,.75,35-2.42l17.23-3.29a4.36,4.36,0,0,1,1.61,0c3,.6,14.1,2.45,21.05-1.15a1.51,1.51,0,0,1,1.5,0c2.37,1.53,10,6.05,12.74,3.21l1.58-4.18a2.26,2.26,0,0,0-.38-2.23c-2.5-3-10.27-11.29-18.1-9.64a70.68,70.68,0,0,0-13.67,4.11,7.13,7.13,0,0,1-3.18.67l-40.24-1.23A36.05,36.05,0,0,0,493,406.18Z" fill="#f9b499"/>
<path d="M566.86,393.81s6.46.11,14.78,8.35" fill="none" stroke="#f7a48b" stroke-miterlimit="10"/>
<path d="M567.32,389.24s4.83-2,16,10.15" fill="none" stroke="#f7a48b" stroke-miterlimit="10"/>
<rect x="58.06" y="89.24" width="278.94" height="484.99" rx="14.39" fill="#f0f0ff"/>
<rect x="80.22" y="142.92" width="153.39" height="9.02" rx="4.29" fill="#0071f2" opacity="0.17" data-primary="true"/>
<rect x="80.22" y="164.09" width="153.39" height="9.02" rx="4.29" fill="#0071f2" opacity="0.17" data-primary="true"/>
<rect x="80.22" y="185.26" width="153.39" height="9.02" rx="4.29" fill="#0071f2" opacity="0.17" data-primary="true"/>
<rect x="80.22" y="206.43" width="153.39" height="9.02" rx="4.29" fill="#0071f2" opacity="0.17" data-primary="true"/>
<rect x="80.22" y="227.6" width="153.39" height="9.02" rx="4.29" fill="#0071f2" opacity="0.17" data-primary="true"/>
<rect x="80.22" y="248.77" width="153.39" height="9.02" rx="4.29" fill="#0071f2" opacity="0.17" data-primary="true"/>
<rect x="80.22" y="269.94" width="153.39" height="9.02" rx="4.29" fill="#0071f2" opacity="0.17" data-primary="true"/>
<rect x="80.22" y="310.32" width="153.39" height="9.02" rx="4.29" fill="#0071f2" opacity="0.17" data-primary="true"/>
<rect x="80.22" y="331.49" width="153.39" height="9.02" rx="4.29" fill="#0071f2" opacity="0.17" data-primary="true"/>
<rect x="80.22" y="352.66" width="153.39" height="9.02" rx="4.29" fill="#0071f2" opacity="0.17" data-primary="true"/>
<rect x="80.22" y="373.83" width="153.39" height="9.02" rx="4.29" fill="#0071f2" opacity="0.17" data-primary="true"/>
<rect x="80.22" y="395" width="153.39" height="9.02" rx="4.29" fill="#0071f2" opacity="0.17" data-primary="true"/>
<rect x="80.22" y="416.17" width="153.39" height="9.02" rx="4.29" fill="#0071f2" opacity="0.17" data-primary="true"/>
<rect x="80.22" y="291.11" width="153.39" height="9.02" rx="4.29" fill="#0071f2" opacity="0.17" data-primary="true"/>
<rect x="251.12" y="140.92" width="44.81" height="32.2" rx="4.86" fill="#0071f2" opacity="0.17" data-primary="true"/>
<circle cx="308.67" cy="146.43" r="5.51" fill="#e6e7e8"/>
<circle cx="308.67" cy="166.84" r="5.51" fill="#e6e7e8"/>
<rect x="251.12" y="183.26" width="44.81" height="32.2" rx="4.86" fill="#0071f2" opacity="0.17" data-primary="true"/>
<circle cx="308.67" cy="188.77" r="5.51" fill="#0071f2" opacity="0.17" data-primary="true"/>
<circle cx="308.67" cy="209.18" r="5.51" fill="#e6e7e8"/>
<rect x="251.12" y="223.49" width="44.81" height="32.2" rx="4.86" fill="#0071f2" opacity="0.17" data-primary="true"/>
<circle cx="308.67" cy="229.01" r="5.51" fill="#e6e7e8"/>
<circle cx="308.67" cy="249.41" r="5.51" fill="#e6e7e8"/>
<rect x="251.12" y="265.83" width="44.81" height="32.2" rx="4.86" fill="#0071f2" opacity="0.17" data-primary="true"/>
<circle cx="308.67" cy="271.34" r="5.51" fill="#e6e7e8"/>
<circle cx="308.67" cy="291.75" r="5.51" fill="#e6e7e8"/>
<rect x="251.12" y="308.32" width="44.81" height="32.2" rx="4.86" fill="#0071f2" opacity="0.17" data-primary="true"/>
<circle cx="308.67" cy="313.83" r="5.51" fill="#e6e7e8"/>
<circle cx="308.67" cy="334.24" r="5.51" fill="#e6e7e8"/>
<rect x="251.12" y="350.66" width="44.81" height="32.2" rx="4.86" fill="#0071f2" opacity="0.17" data-primary="true"/>
<circle cx="308.67" cy="356.17" r="5.51" fill="#0071f2" opacity="0.17" data-primary="true"/>
<circle cx="308.67" cy="376.58" r="5.51" fill="#e6e7e8"/>
<rect x="251.12" y="393" width="44.81" height="32.2" rx="4.86" fill="#0071f2" opacity="0.17" data-primary="true"/>
<circle cx="308.67" cy="398.51" r="5.51" fill="#e6e7e8"/>
<circle cx="308.67" cy="418.92" r="5.51" fill="#0071f2" opacity="0.17" data-primary="true"/>
<rect x="72.43" y="455.91" width="253.25" height="93.93" rx="14.21" fill="#e6e7e8"/>
<rect x="80.22" y="473.12" width="235.03" height="12.01" rx="5.71" fill="#0071f2" data-primary="true"/>
<rect x="80.02" y="504.87" width="235.03" height="12.01" rx="5.71" fill="#2f2e41" data-secondary="true"/>
<circle cx="294.2" cy="479.12" r="3.45" fill="#f0f0ff"/>
<circle cx="294.2" cy="510.87" r="3.45" fill="#f0f0ff"/>
<path d="M340.09,189.77h3a3.62,3.62,0,0,1,3.62,3.62v12.17a3.62,3.62,0,0,1-3.62,3.62h-3a0,0,0,0,1,0,0V189.77A0,0,0,0,1,340.09,189.77Z" fill="#2f2e41" data-secondary="true"/>
<path d="M340.09,229.89h3a3.62,3.62,0,0,1,3.62,3.62v12.17a3.62,3.62,0,0,1-3.62,3.62h-3a0,0,0,0,1,0,0V229.89A0,0,0,0,1,340.09,229.89Z" fill="#2f2e41" data-secondary="true"/>
<path d="M371.35,300.7a7.5,7.5,0,0,1-5-2c-12-10.31-12.6-58.33-12.62-60.37,0-31.44-7.31-38.46-7.39-38.52l.67-.75c.32.28,7.72,7.23,7.72,39.27,0,.49.6,49.6,12.27,59.61a6.31,6.31,0,0,0,5.21,1.66l.08,0,.09,0s2.7.49,6-2c4.57-3.51,10.37-12.83,12.09-37.34,0-.52.82-54.71-6-85.28-.12-.5-3.16-12.7,2.78-21,3.05-4.24,7.94-6.64,14.52-7.12l.07,1c-6.27.46-10.91,2.71-13.78,6.71-5.67,7.88-2.64,20-2.61,20.14,6.85,30.7,6,85,6,85.55-1.75,25-7.78,34.52-12.53,38.13-3.32,2.52-6.08,2.26-6.63,2.18A8,8,0,0,1,371.35,300.7Z" fill="#2f2e41" data-secondary="true"/>
<path d="M370.72,273.45c-9.24,0-13.42-14.84-13.61-15.53-1.46-15.27-10.42-17.82-10.51-17.85l.25-1c.4.1,9.72,2.71,11.24,18.63,0,.09,4.79,17,14.72,14.43l.12,0,.13,0a6.79,6.79,0,0,0,5.66-1.57c3.11-2.5,6.68-9,6-25.6-.17-1.53-4.24-38.65,7.38-52a12.89,12.89,0,0,1,9.65-4.7l0,1a11.91,11.91,0,0,0-8.93,4.36c-11.33,13-7.17,50.92-7.13,51.3.66,17.11-3.14,23.84-6.44,26.47a7.89,7.89,0,0,1-6.38,1.77A9.25,9.25,0,0,1,370.72,273.45Z" fill="#2f2e41" data-secondary="true"/>
<path d="M404.23,138.81h3.29a0,0,0,0,1,0,0v16.24a0,0,0,0,1,0,0h-3.29a2.43,2.43,0,0,1-2.43-2.43V141.24A2.43,2.43,0,0,1,404.23,138.81Z" fill="#0071f2" data-primary="true"/>
<path d="M404.23,181.8h3.29a0,0,0,0,1,0,0V198a0,0,0,0,1,0,0h-3.29a2.43,2.43,0,0,1-2.43-2.43V184.23A2.43,2.43,0,0,1,404.23,181.8Z" fill="#0071f2" data-primary="true"/>
<rect x="407.52" y="111.32" width="213.63" height="114.98" rx="8.67" fill="#0071f2" opacity="0.17" data-primary="true"/>
<rect x="523.67" y="185.47" width="10.41" height="27.91" rx="0.99" fill="#2f2e41" data-secondary="true"/>
<rect x="541.16" y="173.11" width="10.41" height="40.27" rx="0.99" fill="#2f2e41" data-secondary="true"/>
<rect x="559.08" y="159.64" width="10.41" height="53.74" rx="0.99" fill="#2f2e41" data-secondary="true"/>
<rect x="575.32" y="146.43" width="10.41" height="66.95" rx="0.99" fill="#0071f2" data-primary="true"/>
<rect x="593.65" y="133.81" width="10.41" height="79.57" rx="0.99" fill="#2f2e41" data-secondary="true"/>
<path d="M528,148.59A17.2,17.2,0,0,0,528,138l-6.22-1.61.06.21a21.8,21.8,0,0,0-.87-2.25l3.47-5.72a17.18,17.18,0,0,0-7.46-7.47l-5.54,3.27.2.11a20,20,0,0,0-2.22-1l-1.58-6.51a17.28,17.28,0,0,0-10.56,0l-1.61,6.23.2-.06a20.79,20.79,0,0,0-2.24.87l-5.72-3.48a17.23,17.23,0,0,0-7.47,7.47l3.26,5.54.12-.2a22.06,22.06,0,0,0-1,2.22l-6.5,1.58a17.2,17.2,0,0,0,0,10.56l6.22,1.61a1.17,1.17,0,0,0-.05-.2,18.89,18.89,0,0,0,.87,2.24l-3.48,5.72a17.23,17.23,0,0,0,7.47,7.47l5.54-3.26-.2-.12a20.93,20.93,0,0,0,2.21,1l1.59,6.5a17.2,17.2,0,0,0,10.56,0l1.61-6.23-.21.06a21.8,21.8,0,0,0,2.25-.87l5.72,3.48a17.17,17.17,0,0,0,7.46-7.47l-3.26-5.54a2,2,0,0,1-.11.2,19,19,0,0,0,1-2.21Zm-25.83,4a9.67,9.67,0,1,1,9.67-9.67A9.67,9.67,0,0,1,502.2,152.59Z" fill="#2f2e41" data-secondary="true"/>
<path d="M483.25,186a22.43,22.43,0,0,0,0-13.76l-8.11-2.1a2.68,2.68,0,0,1,.07.27,26.49,26.49,0,0,0-1.13-2.93l4.53-7.45a22.43,22.43,0,0,0-9.73-9.73l-7.22,4.25.26.15a26.6,26.6,0,0,0-2.88-1.29L457,145a22.43,22.43,0,0,0-13.76,0l-2.1,8.11.27-.07a27.27,27.27,0,0,0-2.93,1.13L431,149.59a22.43,22.43,0,0,0-9.73,9.73l4.25,7.22.15-.26a26.69,26.69,0,0,0-1.28,2.89l-8.48,2.06a22.43,22.43,0,0,0,0,13.76l8.11,2.1a2.68,2.68,0,0,0-.07-.27,26.49,26.49,0,0,0,1.13,2.93l-4.53,7.45a22.43,22.43,0,0,0,9.73,9.73l7.22-4.25-.26-.15a26.75,26.75,0,0,0,2.89,1.29l2.07,8.47a22.41,22.41,0,0,0,13.75,0l2.1-8.11-.27.07a25.74,25.74,0,0,0,2.93-1.13l7.46,4.53a22.44,22.44,0,0,0,9.72-9.73l-4.25-7.22c0,.09-.09.17-.14.26a26.69,26.69,0,0,0,1.28-2.89Zm-33.67,5.21a12.6,12.6,0,1,1,12.6-12.6A12.6,12.6,0,0,1,449.58,191.22Z" fill="#0071f2" data-primary="true"/>
<path d="M532.5,299l-.56,6.94s10.37,7.34,18.38,1.91L533.9,296.56Z" fill="#f7a48b"/>
<ellipse cx="546.02" cy="275.92" rx="21.52" ry="32.28" transform="translate(-28.57 65.89) rotate(-6.73)" fill="#f9b499"/>
<path d="M533,261a17.52,17.52,0,0,0-3.25,7.76s.63,6.42-2.15,8.62l-3.17-.49s.89,7.66,2.38,11c0,0,1,4.21,5.7,11.15l-1,12.52s-22.68,1.25-23.18-13.09a21.24,21.24,0,0,1,1.4-11.13,19.16,19.16,0,0,0,1.32-6.65c.33-9,2.29-30.08,13.29-32.59,0,0,17.18-20.18,44.7,2.83,0,0,8,7.77,12,31.32,0,0,5.34,23.78-15.51,29.34,0,0-8.67,1.77-13,0l-.19-4.12s20-6.09,14.2-39.15c0,0-4.33-6.05-16.51-3C550,265.27,541.66,267.43,533,261Z" fill="#2f2e41" data-secondary="true"/>
<ellipse cx="525.46" cy="279.24" rx="4.47" ry="5.94" transform="translate(-43.81 105.98) rotate(-11.06)" fill="#f9b499"/>
<g id="ac88f23f-cd92-42f8-b7f0-dbf95810a673" data-name="freepik--Plant--inject-88">
<polyline points="412.42 626.72 406.15 587.38 454.18 587.97 449.44 626.21" fill="#2f2e41" data-secondary="true"/>
<path d="M433.14,580.2a8.2,8.2,0,0,0,8,.67A8.61,8.61,0,0,0,445.5,574a9.25,9.25,0,0,0-13.29,5.52" fill="#0071f2" data-primary="true"/>
<path d="M455.09,588.67a8.2,8.2,0,0,0,8,.67,8.6,8.6,0,0,0,4.36-6.89,9.26,9.26,0,0,0-13.3,5.52" fill="#0071f2" data-primary="true"/>
<path d="M442.77,569.75a8.21,8.21,0,0,0,6.28,5,8.66,8.66,0,0,0,7.44-3.36A9.21,9.21,0,0,0,444,567.57a9.12,9.12,0,0,0-1.61,1.09" fill="#0071f2" data-primary="true"/>
<path d="M450.78,579.55a8.22,8.22,0,0,0-7.17,3.55,8.65,8.65,0,0,0-.16,8.15,9.22,9.22,0,0,0,8.79-9.62,9.79,9.79,0,0,0-.31-2" fill="#0071f2" data-primary="true"/>
<path d="M458.52,595a8.2,8.2,0,0,0,.19,8,8.62,8.62,0,0,0,7.32,3.59,9.72,9.72,0,0,0-.46-8c-1.26-2.3-3.53-3.43-6.38-4.08" fill="#0071f2" data-primary="true"/>
<path d="M471.28,596.86a5.5,5.5,0,0,0-1.9-1.21,8.17,8.17,0,0,0-2.6-.46,30.19,30.19,0,0,0-3.55.21,10.38,10.38,0,0,1-4.36-.38,6.73,6.73,0,0,1-3.6-3.48,20.11,20.11,0,0,1-1.55-5.31,15.25,15.25,0,0,0-1.85-5.45,19,19,0,0,0-4.07-4.13,20.39,20.39,0,0,1-3.88-3.94,13.15,13.15,0,0,1-1.94-9,12.65,12.65,0,0,1,2.36-5.81,9.29,9.29,0,0,1,1.15-1.27,2.8,2.8,0,0,1,.46-.39,2.32,2.32,0,0,1-.38.46,12.49,12.49,0,0,0-1.06,1.32,13.18,13.18,0,0,0-.2,14.46,20.32,20.32,0,0,0,3.82,3.82,19.06,19.06,0,0,1,4.17,4.24,15.37,15.37,0,0,1,1.92,5.63,20.09,20.09,0,0,0,1.49,5.2,6.35,6.35,0,0,0,3.32,3.29,10.43,10.43,0,0,0,4.19.41,28.57,28.57,0,0,1,3.58-.13,7.87,7.87,0,0,1,2.67.56,4.15,4.15,0,0,1,1.44.93,1.38,1.38,0,0,1,.3.34C471.26,596.81,471.29,596.85,471.28,596.86Z" fill="#0071f2" data-primary="true"/>
<path d="M471.28,596.86a5.5,5.5,0,0,0-1.9-1.21,8.17,8.17,0,0,0-2.6-.46,30.19,30.19,0,0,0-3.55.21,10.38,10.38,0,0,1-4.36-.38,6.73,6.73,0,0,1-3.6-3.48,20.11,20.11,0,0,1-1.55-5.31,15.25,15.25,0,0,0-1.85-5.45,19,19,0,0,0-4.07-4.13,20.39,20.39,0,0,1-3.88-3.94,13.15,13.15,0,0,1-1.94-9,12.65,12.65,0,0,1,2.36-5.81,9.29,9.29,0,0,1,1.15-1.27,2.8,2.8,0,0,1,.46-.39,2.32,2.32,0,0,1-.38.46,12.49,12.49,0,0,0-1.06,1.32,13.18,13.18,0,0,0-.2,14.46,20.32,20.32,0,0,0,3.82,3.82,19.06,19.06,0,0,1,4.17,4.24,15.37,15.37,0,0,1,1.92,5.63,20.09,20.09,0,0,0,1.49,5.2,6.35,6.35,0,0,0,3.32,3.29,10.43,10.43,0,0,0,4.19.41,28.57,28.57,0,0,1,3.58-.13,7.87,7.87,0,0,1,2.67.56,4.15,4.15,0,0,1,1.44.93,1.38,1.38,0,0,1,.3.34C471.26,596.81,471.29,596.85,471.28,596.86Z" fill="#0071f2" data-primary="true"/>
<path d="M379.6,600.89a12.15,12.15,0,0,0-11.49-12.78,12.31,12.31,0,0,0-4.95.78,20.28,20.28,0,0,0,16,11.82" fill="#0071f2" data-primary="true"/>
<path d="M376.43,602.56c-2.35,2.58-2.2,6.73-.52,9.79s4.57,5.23,7.47,7.17a15.74,15.74,0,0,0-6.79-17.9" fill="#0071f2" data-primary="true"/>
<path d="M387.81,590.47A14,14,0,0,0,403.12,603l.59-.07c-.91-3.78-2.42-7.58-5.34-10.14s-7.52-3.52-10.74-1.36" fill="#0071f2" data-primary="true"/>
<path d="M387.71,586.62c-.59-3.44-4-5.93-7.45-6.26s-6.9,1.16-9.68,3.26a12.61,12.61,0,0,0,17.17,1.7" fill="#0071f2" data-primary="true"/>
<path d="M369.84,615.85c-3.3,2.81-4.12,7.83-2.75,11.94s4.58,7.39,8.18,9.8c1.39-4.08,2.26-8.45,1.53-12.7s-3.29-8.34-7.23-10.07" fill="#0071f2" data-primary="true"/>
<path d="M387.2,577a10.13,10.13,0,0,1,14.08-2.65A9.76,9.76,0,0,1,403.2,576a8.75,8.75,0,0,1-15.8.4" fill="#0071f2" data-primary="true"/>
<path d="M391.24,567.07a13.18,13.18,0,0,1-16.43-8.79c-.15-.5-.27-1-.37-1.51a29.25,29.25,0,0,1,7.93.11,12.86,12.86,0,0,1,7,3.46,7,7,0,0,1,1.84,6.73" fill="#0071f2" data-primary="true"/>
<path d="M398.86,564.5a10.78,10.78,0,0,1-1.5-15.17,10.32,10.32,0,0,1,1.43-1.45,22.57,22.57,0,0,1,4.71,10,8.33,8.33,0,0,1,0,4.15,3.84,3.84,0,0,1-2.9,2.72" fill="#0071f2" data-primary="true"/>
<g opacity="0.4">
<path d="M379.6,600.89a12.15,12.15,0,0,0-11.49-12.78,12.31,12.31,0,0,0-4.95.78,20.28,20.28,0,0,0,16,11.82"/>
</g>
<g opacity="0.4">
<path d="M376.43,602.56c-2.35,2.58-2.2,6.73-.52,9.79s4.57,5.23,7.47,7.17a15.74,15.74,0,0,0-6.79-17.9"/>
</g>
<g opacity="0.4">
<path d="M387.81,590.47A14,14,0,0,0,403.12,603l.59-.07c-.91-3.78-2.42-7.58-5.34-10.14s-7.52-3.52-10.74-1.36"/>
</g>
<g opacity="0.4">
<path d="M387.71,586.62c-.59-3.44-4-5.93-7.45-6.26s-6.9,1.16-9.68,3.26a12.61,12.61,0,0,0,17.17,1.7"/>
</g>
<g opacity="0.4">
<path d="M369.84,615.85c-3.3,2.81-4.12,7.83-2.75,11.94s4.58,7.39,8.18,9.8c1.39-4.08,2.26-8.45,1.53-12.7s-3.29-8.34-7.23-10.07"/>
</g>
<g opacity="0.4">
<path d="M387.2,577a10.13,10.13,0,0,1,14.08-2.65A9.76,9.76,0,0,1,403.2,576a8.75,8.75,0,0,1-15.8.4"/>
</g>
<g opacity="0.4">
<path d="M391.24,567.07a13.18,13.18,0,0,1-16.43-8.79c-.15-.5-.27-1-.37-1.51a29.25,29.25,0,0,1,7.93.11,12.86,12.86,0,0,1,7,3.46,7,7,0,0,1,1.84,6.73"/>
</g>
<g opacity="0.4">
<path d="M398.86,564.5a10.78,10.78,0,0,1-1.5-15.17,10.32,10.32,0,0,1,1.43-1.45,22.57,22.57,0,0,1,4.71,10,8.33,8.33,0,0,1,0,4.15,3.84,3.84,0,0,1-2.9,2.72"/>
</g>
<path d="M412,588.65a1.22,1.22,0,0,1,0-.27,4.82,4.82,0,0,1,.05-.79c0-.7.11-1.72.13-3a27.07,27.07,0,0,0-1.78-10.91A16.5,16.5,0,0,0,406,567.5a11.69,11.69,0,0,0-8-2.94,10,10,0,0,0-4.5,1.13,8.88,8.88,0,0,0-3.48,3.32c-1.74,2.88-2.18,6.48-2,10s.63,7.12.24,10.56a16.43,16.43,0,0,1-1.32,4.89,10.24,10.24,0,0,1-3,3.87,15,15,0,0,1-4.12,2.11A21.12,21.12,0,0,0,376,602.2a14,14,0,0,0-5.09,5.55,13.62,13.62,0,0,0-1.47,6.07,14.68,14.68,0,0,0,.77,4.69,17.28,17.28,0,0,0,1.82,3.65,1.54,1.54,0,0,1-.18-.2c-.16-.21-.31-.43-.46-.65a13.16,13.16,0,0,1-1.37-2.73,14.36,14.36,0,0,1-.87-4.76,13.73,13.73,0,0,1,1.43-6.24,14.4,14.4,0,0,1,5.19-5.75c2.38-1.58,5.51-2,7.93-3.87s3.69-5.15,4.06-8.45-.12-6.86-.25-10.48.27-7.32,2.1-10.32a9.4,9.4,0,0,1,3.69-3.5A10.36,10.36,0,0,1,398,564a12.09,12.09,0,0,1,8.28,3.09,16.79,16.79,0,0,1,4.45,6.36,22.26,22.26,0,0,1,1.51,6.23,33.85,33.85,0,0,1,.13,4.83,24,24,0,0,1-.23,3.05,4.53,4.53,0,0,1-.1.78A.62.62,0,0,1,412,588.65Z" fill="#0071f2" data-primary="true"/>
<g opacity="0.4">
<path d="M412,588.65a1.22,1.22,0,0,1,0-.27,4.82,4.82,0,0,1,.05-.79c0-.7.11-1.72.13-3a27.07,27.07,0,0,0-1.78-10.91A16.5,16.5,0,0,0,406,567.5a11.69,11.69,0,0,0-8-2.94,10,10,0,0,0-4.5,1.13,8.88,8.88,0,0,0-3.48,3.32c-1.74,2.88-2.18,6.48-2,10s.63,7.12.24,10.56a16.43,16.43,0,0,1-1.32,4.89,10.24,10.24,0,0,1-3,3.87,15,15,0,0,1-4.12,2.11A21.12,21.12,0,0,0,376,602.2a14,14,0,0,0-5.09,5.55,13.62,13.62,0,0,0-1.47,6.07,14.68,14.68,0,0,0,.77,4.69,17.28,17.28,0,0,0,1.82,3.65,1.54,1.54,0,0,1-.18-.2c-.16-.21-.31-.43-.46-.65a13.16,13.16,0,0,1-1.37-2.73,14.36,14.36,0,0,1-.87-4.76,13.73,13.73,0,0,1,1.43-6.24,14.4,14.4,0,0,1,5.19-5.75c2.38-1.58,5.51-2,7.93-3.87s3.69-5.15,4.06-8.45-.12-6.86-.25-10.48.27-7.32,2.1-10.32a9.4,9.4,0,0,1,3.69-3.5A10.36,10.36,0,0,1,398,564a12.09,12.09,0,0,1,8.28,3.09,16.79,16.79,0,0,1,4.45,6.36,22.26,22.26,0,0,1,1.51,6.23,33.85,33.85,0,0,1,.13,4.83,24,24,0,0,1-.23,3.05,4.53,4.53,0,0,1-.1.78A.62.62,0,0,1,412,588.65Z"/>
</g>
<path d="M482,580.07a10.19,10.19,0,0,0,.72-3.52,8.69,8.69,0,0,0-.94-4.07,8.38,8.38,0,0,0-3.91-3.78,8.5,8.5,0,0,0-3.09-.83,10.08,10.08,0,0,0-3.45.4c-2.35.62-4.68,2-7.47,2.51a8.9,8.9,0,0,1-4.32-.1,6.62,6.62,0,0,1-3.53-2.82c-1.68-2.6-2.15-5.87-4.18-8.26a8.06,8.06,0,0,0-3.79-2.48,10.53,10.53,0,0,0-4.43-.45,11.29,11.29,0,0,0-7.37,3.83,17.31,17.31,0,0,0-3.66,6.77,20.54,20.54,0,0,0-.82,6.71,73.71,73.71,0,0,0,1.25,9.81l.45,2.66a3.56,3.56,0,0,0,.11.69,1,1,0,0,1,0,.24.68.68,0,0,0-.07-.23l-.16-.68c-.13-.65-.32-1.53-.55-2.64a66.66,66.66,0,0,1-1.42-9.84,20.78,20.78,0,0,1,.77-6.84,17.76,17.76,0,0,1,3.72-7,13.31,13.31,0,0,1,3.37-2.7,11.59,11.59,0,0,1,8.95-.86,8.66,8.66,0,0,1,4,2.64c2.14,2.57,2.6,5.85,4.21,8.32a6.06,6.06,0,0,0,3.25,2.62,8.41,8.41,0,0,0,4.08.11c2.68-.51,5-1.83,7.45-2.45a10.15,10.15,0,0,1,3.59-.39,8.75,8.75,0,0,1,3.22.9,8.64,8.64,0,0,1,4.89,8.18,8.11,8.11,0,0,1-.52,2.66A4.22,4.22,0,0,1,482,580.07Z" fill="#0071f2" data-primary="true"/>
<path d="M453.87,562.64a9.38,9.38,0,0,0,8.57.56,8.64,8.64,0,0,0,4.36-6.89,9.24,9.24,0,0,0-13.29,5.51" fill="#0071f2" data-primary="true"/>
<path d="M463,570.9a9.33,9.33,0,0,0,4,7.6,8.64,8.64,0,0,0,8.16.14,9.8,9.8,0,0,0-3.8-7,9.61,9.61,0,0,0-7.81-1.43" fill="#0071f2" data-primary="true"/>
<path d="M478.77,569.07a9.39,9.39,0,0,0,8.58-.36,8.62,8.62,0,0,0,3.6-7.31,9.2,9.2,0,0,0-12,5,9.74,9.74,0,0,0-.56,1.91" fill="#0071f2" data-primary="true"/>
<path d="M440.61,557.17c-2.3-2-3.85-5.47-3.41-8.08a8.65,8.65,0,0,1,5.3-6.21,9.22,9.22,0,0,1-1.35,14.29" fill="#0071f2" data-primary="true"/>
<path d="M378.94,545.86a.67.67,0,0,1,.09-.21l.32-.59c.29-.51.74-1.25,1.39-2.17a23.27,23.27,0,0,1,6.87-6.5,17,17,0,0,1,6.17-2.26,15.15,15.15,0,0,1,7.49.79,12.14,12.14,0,0,1,6.41,5.24c1.47,2.57,1.94,5.59,2.8,8.48a16,16,0,0,0,1.79,4,12.59,12.59,0,0,0,3.05,3c1.14.84,2.34,1.61,3.43,2.49a14.19,14.19,0,0,1,2.79,3,18.5,18.5,0,0,1,2.85,7,24,24,0,0,1,.38,6.56A48.47,48.47,0,0,1,423.1,584c-.29,1.08-.53,1.92-.69,2.48a5.28,5.28,0,0,1-.28.85,6.23,6.23,0,0,1,.18-.88c.14-.61.34-1.45.59-2.5a53.35,53.35,0,0,0,1.51-9.3,24.39,24.39,0,0,0-.44-6.44,17.85,17.85,0,0,0-2.83-6.79,14.07,14.07,0,0,0-2.7-2.91c-1.06-.86-2.26-1.61-3.42-2.47a13.27,13.27,0,0,1-3.18-3.12,16.11,16.11,0,0,1-1.85-4.18c-.87-2.94-1.35-5.91-2.76-8.37a11.71,11.71,0,0,0-6.13-5.06,15,15,0,0,0-7.26-.8,16.14,16.14,0,0,0-6,2.15,23.85,23.85,0,0,0-6.9,6.3c-.67.89-1.14,1.61-1.46,2.11A6.78,6.78,0,0,1,378.94,545.86Z" fill="#0071f2" data-primary="true"/>
<path d="M416.71,556.44c-.79-.74-1.18-.22-2.25,0a6.59,6.59,0,0,0-2.88,1.44,12.17,12.17,0,0,0-3.94,12.75,9.48,9.48,0,0,0,9.95-9,9.35,9.35,0,0,0-1.29-5.27" fill="#0071f2" data-primary="true"/>
<path d="M384,541.58c-.4-1-1-.71-2-1a6.5,6.5,0,0,0-3.22.06,12.17,12.17,0,0,0-9,9.81,9.49,9.49,0,0,0,13.9-9.08" fill="#0071f2" data-primary="true"/>
<path d="M423.85,576.54a11,11,0,0,0-17.2.84,13.59,13.59,0,0,0,8.92,3.52,13.9,13.9,0,0,0,9-3.63" fill="#0071f2" data-primary="true"/>
<path d="M421.17,561.53a11.08,11.08,0,0,0,11.41-10.75,10.31,10.31,0,0,0-.21-2.48,10,10,0,0,0-11.91,7.61,10.13,10.13,0,0,0,.34,5.51" fill="#0071f2" data-primary="true"/>
<path d="M409.71,543.88a11.08,11.08,0,0,0,15-8.76,10,10,0,0,0-15.27,8.53" fill="#0071f2" data-primary="true"/>
<path d="M405.83,538.12a11.1,11.1,0,0,0-14.36,6.33,11.3,11.3,0,0,0-.64,2.43,10,10,0,0,0,15.32-8.51" fill="#0071f2" data-primary="true"/>
<path d="M401.25,535A11.08,11.08,0,0,0,408.2,521a10.18,10.18,0,0,0-1.05-2.24A10,10,0,0,0,400.86,535" fill="#0071f2" data-primary="true"/>
<path d="M389.48,535.58a11.09,11.09,0,0,0-6.63-14.22,10.64,10.64,0,0,0-2.37-.57,10,10,0,0,0,8.83,15.1" fill="#0071f2" data-primary="true"/>
<polygon points="405.54 622.16 409.21 626.72 454.42 626.72 457.5 622.16 405.54 622.16" fill="#2f2e41" data-secondary="true"/>
<polygon points="405.54 622.16 409.21 626.72 454.42 626.72 457.5 622.16 405.54 622.16" opacity="0.2"/>
</g>
</svg>